HIERARCHY
ROOT hip
{
	OFFSET 0.000000 0.000000 0.000000 
	CHANNELS 6 Xposition Yposition Zposition Xrotation Zrotation Yrotation
	JOINT abdomen
	{
		OFFSET 0.000000 3.402643 0.000000 
		CHANNELS 3 Xrotation Zrotation Yrotation
		JOINT chest
		{
			OFFSET 0.000000 8.438565 -0.680529 
			CHANNELS 3 Xrotation Zrotation Yrotation
			JOINT neck
			{
				OFFSET 0.000000 10.207942 -0.272212 
				CHANNELS 3 Xrotation Zrotation Yrotation
				JOINT head
				{
					OFFSET 0.000000 3.130431 0.000000 
					CHANNELS 3 Xrotation Zrotation Yrotation
					End Site
					{
						OFFSET 0.000000 3.130435 0.000000 
					}
				}
			}
			JOINT lCollar
			{
				OFFSET 3.470700 6.669187 -0.816635 
				CHANNELS 3 Yrotation Zrotation Xrotation
				JOINT lShldr
				{
					OFFSET 3.198488 0.000000 0.000000 
					CHANNELS 3 Zrotation Yrotation Xrotation
					JOINT lForeArm
					{
						OFFSET 10.139888 0.000000 0.000000 
						CHANNELS 3 Yrotation Zrotation Xrotation
						JOINT lHand
						{
							OFFSET 8.370511 0.000000 0.000000 
							CHANNELS 3 Zrotation Yrotation Xrotation
							End Site
							{
								OFFSET 4.083176 0.000000 0.000000 
							}
						}
					}
				}
			}
			JOINT rCollar
			{
				OFFSET -3.470700 6.669187 -0.816635 
				CHANNELS 3 Yrotation Zrotation Xrotation
				JOINT rShldr
				{
					OFFSET -3.198488 0.000000 0.000000 
					CHANNELS 3 Zrotation Yrotation Xrotation
					JOINT rForeArm
					{
						OFFSET -10.139888 0.000000 0.000000 
						CHANNELS 3 Yrotation Zrotation Xrotation
						JOINT rHand
						{
							OFFSET -8.370511 0.000000 0.000000 
							CHANNELS 3 Zrotation Yrotation Xrotation
							End Site
							{
								OFFSET -4.083176 0.000000 0.000000 
							}
						}
					}
				}
			}
		}
	}
	JOINT lThigh
	{
		OFFSET 5.308129 -1.633274 1.361059 
		CHANNELS 3 Xrotation Zrotation Yrotation
		JOINT lShin
		{
			OFFSET -2.041588 -20.007561 0.000000 
			CHANNELS 3 Xrotation Zrotation Yrotation
			JOINT lFoot
			{
				OFFSET 0.000000 -19.190928 -1.224953 
				CHANNELS 3 Xrotation Yrotation Zrotation
				End Site
				{
					OFFSET 0.000000 -2.449906 4.627600 
				}
			}
		}
	}
	JOINT rThigh
	{
		OFFSET -5.308129 -1.633274 1.361059 
		CHANNELS 3 Xrotation Zrotation Yrotation
		JOINT rShin
		{
			OFFSET 2.041588 -20.007561 0.000000 
			CHANNELS 3 Xrotation Zrotation Yrotation
			JOINT rFoot
			{
				OFFSET 0.000000 -19.190928 -1.224953 
				CHANNELS 3 Xrotation Yrotation Zrotation
				End Site
				{
					OFFSET 0.000000 -2.449906 4.627600 
				}
			}
		}
	}
}
MOTION
Frames: 17
Frame Time: 0.016667
0.342302 46.008732 0.236654 -1.330774 15.108888 11.243748 5.878796 -14.955568 4.983646 0.000000 0.000000 0.000000 -42.245579 2.299259 55.575432 0.000000 0.000000 0.000000 0.000000 0.000000 0.000000 -63.836941 -49.772663 93.018692 -91.291092 27.072746 5.593519 -20.142349 -18.667505 -37.455551 0.000000 0.000000 0.000000 70.022705 25.057945 71.081482 91.604958 2.776801 33.452545 -65.816040 31.461357 10.223449 -2.535866 6.166750 -13.372008 1.437885 -10.767916 9.029298 -1.925010 -14.484480 -9.495378 -12.840541 -25.446272 -3.467617 31.006712 -2.621763 -1.156053 -13.908719 -1.358294 10.727345 
0.202346 45.919163 0.219860 -0.883693 14.411641 10.541560 5.617380 -13.899415 5.219831 0.000000 0.000000 0.000000 -40.272171 0.863312 51.502445 0.000000 0.000000 0.000000 0.000000 0.000000 0.000000 -63.581760 -47.047302 92.284821 -85.715286 26.331421 3.589497 -19.211468 -17.046228 -36.710255 0.000000 0.000000 0.000000 70.100021 23.542505 71.415726 86.400688 0.235938 31.461351 -61.726189 29.755859 7.339410 -2.797549 5.539310 -11.967416 1.769349 -10.125244 8.118857 -1.702141 -13.567761 -9.166256 -13.004891 -23.694736 -3.156736 29.967251 -2.480207 -1.575894 -13.567946 -1.162383 9.618499 
0.163158 45.851982 0.298238 -0.282048 13.252979 9.425054 5.339975 -12.061131 5.692087 0.000000 0.000000 0.000000 -36.451084 -1.494608 44.354843 0.000000 0.000000 0.000000 0.000000 0.000000 0.000000 -63.545498 -42.281834 91.605385 -76.060974 24.685619 0.332079 -17.538977 -14.391130 -35.432034 0.000000 0.000000 0.000000 69.985237 20.680529 71.556725 77.168861 -3.535109 27.687275 -54.606056 27.238884 1.954132 -3.192107 4.549555 -9.682158 2.471565 -9.068617 6.204821 -1.452478 -11.524472 -8.307760 -13.103713 -21.061180 -3.005944 28.654692 -2.567958 -1.795476 -13.183922 -0.728393 7.672238 
0.123972 45.784805 0.376611 0.345191 12.112226 8.292637 5.089213 -10.205990 6.140983 0.000000 0.000000 0.000000 -32.353802 -3.352901 37.066219 0.000000 0.000000 0.000000 0.000000 0.000000 0.000000 -63.590748 -37.505501 90.968613 -66.652176 22.583998 -2.533433 -15.829184 -11.772094 -34.083591 0.000000 0.000000 0.000000 69.868217 17.827972 71.708771 67.651321 -6.637262 23.345886 -47.382538 25.337641 -3.625127 -3.609575 3.561619 -7.383918 3.134944 -7.986161 4.287754 -1.230040 -9.492534 -7.480302 -13.181577 -18.414888 -2.890789 27.336958 -2.679845 -1.979304 -12.774998 -0.306343 5.721364 
0.286330 45.840797 0.393407 0.859768 11.058190 7.146852 4.906786 -7.746219 6.316930 0.000000 0.000000 0.000000 -27.382959 -5.391012 28.899559 0.000000 0.000000 0.000000 0.000000 0.000000 0.000000 -63.756443 -32.168438 90.444153 -56.362465 19.771318 -5.255476 -13.808510 -8.837564 -32.391960 0.000000 0.000000 0.000000 69.572861 14.448644 71.360954 56.759750 -9.235975 17.950764 -39.319725 24.098650 -10.322168 -4.135044 2.272983 -5.005564 4.032235 -6.765316 1.943580 -1.224242 -7.435164 -6.694639 -13.065317 -15.525954 -2.687027 26.221199 -2.582073 -2.784856 -12.767306 0.236865 3.633305 
0.448700 45.896786 0.410207 1.398633 10.014325 6.001269 4.740837 -5.288325 6.492113 0.000000 0.000000 0.000000 -22.162558 -6.697535 20.556211 0.000000 0.000000 0.000000 0.000000 0.000000 0.000000 -63.971504 -26.830864 89.925041 -46.405006 16.569290 -7.367074 -11.714961 -5.963633 -30.615555 0.000000 0.000000 0.000000 69.312729 11.066640 71.043831 45.587383 -10.758885 12.129805 -31.209377 23.742220 -17.088436 -4.688753 0.994559 -2.628751 4.841597 -5.514534 -0.327048 -1.226771 -5.407935 -5.911175 -12.965811 -12.614123 -2.456944 25.126028 -2.480403 -3.600908 -12.748656 0.762147 1.546799 
0.902164 46.053535 0.516576 1.480501 9.481561 5.297817 4.741635 -2.998776 6.405059 0.000000 0.000000 0.000000 -17.309584 -8.050367 13.652048 0.000000 0.000000 0.000000 0.000000 0.000000 0.000000 -64.407806 -22.295309 89.721611 -38.461197 13.646387 -8.461392 -10.122060 -3.702047 -29.119432 0.000000 0.000000 0.000000 68.761505 7.904685 70.558441 36.215347 -11.122500 7.151000 -24.606039 23.966902 -23.245890 -4.799202 -0.478428 -1.152605 5.790837 -4.609074 -1.715140 -1.347977 -3.651345 -4.957820 -12.763337 -10.409907 -2.101692 25.319307 -2.617153 -4.347340 -13.485118 0.611497 0.012263 
1.355656 46.210270 0.622958 1.564448 8.946327 4.588389 4.744806 -0.718280 6.309076 0.000000 0.000000 0.000000 -12.320292 -8.808624 6.640283 0.000000 0.000000 0.000000 0.000000 0.000000 0.000000 -64.848526 -17.752726 89.487221 -30.662848 10.607202 -9.130226 -8.467992 -1.480704 -27.567421 0.000000 0.000000 0.000000 68.233559 4.744151 70.099686 26.840786 -10.695087 2.181448 -18.033754 24.834465 -29.356297 -4.926208 -1.951269 0.314975 6.708580 -3.681443 -3.085756 -1.486861 -1.913878 -3.975985 -12.532811 -8.189249 -1.748075 25.502254 -2.744006 -5.063223 -14.219955 0.433108 -1.546904 
2.161814 46.232670 0.914071 0.785992 9.484119 4.406872 4.826446 1.048973 5.967939 0.000000 0.000000 0.000000 -8.156367 -10.360074 2.670149 0.000000 0.000000 0.000000 0.000000 0.000000 0.000000 -65.269562 -14.626742 89.666000 -25.853823 8.832515 -9.550178 -7.439487 0.102321 -27.140203 0.000000 0.000000 0.000000 67.656082 2.265120 69.159485 20.866665 -10.077516 -0.749633 -13.991354 25.832438 -33.141838 -4.315878 -3.777784 0.869442 7.602702 -3.027374 -3.956120 -1.614712 -0.830390 -3.352240 -12.240130 -7.711085 -1.612668 27.613976 -3.144423 -5.638577 -15.864207 0.600791 -2.052950 
2.967976 46.255070 1.205172 -0.008126 10.012464 4.216107 4.905279 2.808712 5.622344 0.000000 0.000000 0.000000 -3.882760 -11.617596 -1.426867 0.000000 0.000000 0.000000 0.000000 0.000000 0.000000 -65.668625 -11.476426 89.822784 -21.076704 7.034436 -9.831270 -6.398782 1.671697 -26.679382 0.000000 0.000000 0.000000 67.121704 -0.215583 68.246033 14.955106 -9.170381 -3.592660 -9.985154 27.075464 -36.865849 -3.709841 -5.613515 1.423566 8.490187 -2.344219 -4.833683 -1.777257 0.250493 -2.726744 -11.960094 -7.224995 -1.465809 29.727295 -3.535088 -6.236771 -17.526562 0.771600 -2.546995 
3.818922 46.350239 1.378721 -1.244287 11.160550 4.310961 5.182094 3.773061 5.275365 0.000000 0.000000 0.000000 -0.666561 -13.418025 -3.143085 0.000000 0.000000 0.000000 0.000000 0.000000 0.000000 -65.877037 -9.647468 89.808632 -18.870047 6.397204 -9.895288 -6.280554 2.494048 -27.102428 0.000000 0.000000 0.000000 66.537323 -1.785423 67.182549 12.313249 -8.624318 -4.792710 -8.327565 27.702328 -38.420029 -2.489508 -7.546280 0.934158 9.274153 -2.003053 -5.023840 -2.160650 1.106279 -2.386338 -11.617582 -8.015104 -1.608895 33.122574 -4.062456 -6.355102 -19.985399 0.352324 -2.386863 
4.669856 46.445389 1.552287 -2.473885 12.299091 4.378691 5.447226 4.738352 4.929162 0.000000 0.000000 0.000000 2.629598 -15.121177 -4.979295 0.000000 0.000000 0.000000 0.000000 0.000000 0.000000 -66.076180 -7.798218 89.792114 -16.666510 5.757802 -9.933446 -6.174114 3.318498 -27.517841 0.000000 0.000000 0.000000 65.980347 -3.365582 66.135498 9.688329 -8.026341 -5.972612 -6.684896 28.358913 -39.971054 -1.259339 -9.457320 0.393928 10.053290 -1.651627 -5.218283 -2.557272 1.951928 -2.043391 -11.259347 -8.808264 -1.747696 36.511997 -4.580074 -6.523725 -22.461479 -0.043988 -2.229938 
5.425628 46.378212 1.876989 -3.875764 13.442396 4.159040 5.793452 5.001776 4.833539 0.000000 0.000000 0.000000 4.730066 -16.885370 -5.278751 0.000000 0.000000 0.000000 0.000000 0.000000 0.000000 -66.094742 -7.032296 88.703072 -15.780361 5.697903 -9.998490 -6.949827 3.125812 -27.429289 0.000000 0.000000 0.000000 65.806786 -4.047627 65.048080 9.041831 -7.843413 -6.448556 -6.479799 28.585001 -40.775059 0.136423 -10.973606 0.532792 10.678256 -1.827946 -5.263698 -2.948726 1.983715 -1.361752 -10.634458 -10.009404 -2.608698 38.963394 -5.468725 -6.553299 -24.210024 0.527470 -1.614563 
6.181282 46.311039 2.201645 -5.274796 14.586642 3.905703 6.147659 5.265334 4.727453 0.000000 0.000000 0.000000 6.855857 -18.636398 -5.641319 0.000000 0.000000 0.000000 0.000000 0.000000 0.000000 -66.131180 -6.257205 87.615601 -14.884806 5.635041 -10.060841 -7.730837 2.921691 -27.350031 0.000000 0.000000 0.000000 65.650299 -4.739407 63.960316 8.400271 -7.649050 -6.913247 -6.264725 28.810947 -41.570667 1.542259 -12.485498 0.641037 11.271597 -2.013378 -5.310101 -3.328309 1.982476 -0.681309 -9.979050 -11.199377 -3.495373 41.433125 -6.347477 -6.603498 -25.997168 1.029328 -0.960027 
6.102907 46.288651 2.190448 -5.101913 13.879258 3.642638 6.144160 5.001848 4.823811 0.000000 0.000000 0.000000 5.251568 -17.242226 -5.021803 0.000000 0.000000 0.000000 0.000000 0.000000 0.000000 -66.175117 -5.255209 86.425377 -14.815950 6.206995 -9.542109 -6.499530 2.874927 -27.263872 0.000000 0.000000 0.000000 66.200584 -5.297997 63.300137 8.908836 -8.188995 -6.493803 -6.371945 28.679045 -40.875744 1.707735 -11.222200 0.797519 10.378182 -2.101254 -4.818518 -2.673661 1.636343 -1.221785 -9.028940 -11.478146 -3.684756 38.928577 -6.239872 -6.170109 -24.488625 1.088834 -0.316863 
6.024520 46.266273 2.179243 -4.931506 13.180958 3.382363 6.148732 4.738491 4.909698 0.000000 0.000000 0.000000 3.676357 -15.833516 -4.447808 0.000000 0.000000 0.000000 0.000000 0.000000 0.000000 -66.238716 -4.263448 85.231361 -14.737907 6.787204 -9.024209 -5.267427 2.827177 -27.180418 0.000000 0.000000 0.000000 66.761002 -5.847559 62.637280 9.416423 -8.728967 -6.064903 -6.492689 28.548491 -40.185917 1.884104 -9.967098 0.965362 9.469897 -2.179135 -4.333894 -2.014464 1.267586 -1.764840 -8.085670 -11.766771 -3.880246 36.437263 -6.103018 -5.752772 -22.981453 1.179543 0.348477 
5.878963 46.378242 2.117662 -4.581630 11.947860 2.915081 6.233472 4.387570 5.005457 0.000000 0.000000 0.000000 0.831703 -13.306342 -3.484143 0.000000 0.000000 0.000000 0.000000 0.000000 0.000000 -66.434486 -2.478257 83.151611 -14.611313 7.933092 -8.270464 -3.189665 2.700693 -26.848454 0.000000 0.000000 0.000000 67.713951 -6.663294 61.529041 10.580588 -9.996284 -5.363498 -6.757310 28.380272 -39.240299 2.303086 -7.914677 0.962442 7.628204 -2.069923 -2.995676 -0.925875 0.954704 -2.950391 -6.687266 -12.104458 -4.293218 31.964069 -5.536498 -5.363543 -19.997936 1.537356 1.306961 
